# xmcd
#
# Track frame offsets:
#	150
#	14686
#	27674
#	42954
#	64108
#	81467
#	96111
#	110337
#	125845
#	143421
#	161777
#	176532
#	190672
#	210037
#	226534
#
# Disc length: 3244 seconds
#
# Revision: 1
# Processed by: cddbd v1.5.2PL0 Copyright (c) Steve Scherf et al.
# Submitted via: audiograbber 1.83.01
#
DISCID=c30caa0f
DTITLE=Jason Aldean - Night Train
DYEAR=2012
DGENRE=Country
TTITLE0=This Nothin' Town
TTITLE1=When She Says Baby
TTITLE2=Feel That Again
TTITLE3=Wheels Rollin'
TTITLE4=Talk
TTITLE5=The Only Way I Know (With Luke Bryan and Eric Church)
TTITLE6=Take A Little Ride
TTITLE7=I Don't Do Lonely Well
TTITLE8=Night Train
TTITLE9=1994
TTITLE10=Staring At The Sun
TTITLE11=Drink One For Me
TTITLE12=Black Tears
TTITLE13=Walking Away
TTITLE14=Water Tower
EXTD=
EXTT0=
EXTT1=
EXTT2=
EXTT3=
EXTT4=
EXTT5=
EXTT6=
EXTT7=
EXTT8=
EXTT9=
EXTT10=
EXTT11=
EXTT12=
EXTT13=
EXTT14=
PLAYORDER=
